<svg width="32" height="37" viewBox="0 0 32 37" fill="none" xmlns="http://www.w3.org/2000/svg">
<path fill-rule="evenodd" clip-rule="evenodd" d="M3 16.5C3 8.79645 8.22718 3 14.1667 3C20.1062 3 25.3333 8.79645 25.3333 16.5C25.3333 20.2637 24.0856 23.5722 22.1167 25.9719C22.0077 26.0686 21.916 26.1778 21.842 26.2955C19.8061 28.6135 17.0716 30 14.1667 30C8.22718 30 3 24.2036 3 16.5ZM23.0601 29.3567C20.6588 31.6218 17.5875 33 14.1667 33C6.11494 33 0 25.365 0 16.5C0 7.63501 6.11494 0 14.1667 0C22.2184 0 28.3333 7.63501 28.3333 16.5C28.3333 20.4563 27.1155 24.1676 25.0511 27.0646L31.146 34.2822C31.6805 34.9152 31.6006 35.8616 30.9677 36.396C30.3347 36.9305 29.3884 36.8507 28.8539 36.2178L23.0601 29.3567Z" fill="#9BBA74"/>
</svg>
