<svg width="30" height="33" viewBox="0 0 30 33" fill="none" xmlns="http://www.w3.org/2000/svg">
<path fill-rule="evenodd" clip-rule="evenodd" d="M4.75 15.125C4.75 9.51033 8.86699 5.125 13.75 5.125C18.633 5.125 22.75 9.51033 22.75 15.125C22.75 17.8732 21.7636 20.3269 20.1839 22.116C20.1689 22.1281 20.1542 22.1407 20.1398 22.1538C20.0774 22.2106 20.0237 22.2735 19.9791 22.3407C18.3487 24.0734 16.1412 25.125 13.75 25.125C8.86699 25.125 4.75 20.7397 4.75 15.125ZM20.7868 24.352C18.8916 26.0778 16.4478 27.125 13.75 27.125C7.58731 27.125 2.75 21.6606 2.75 15.125C2.75 8.58941 7.58731 3.125 13.75 3.125C19.9127 3.125 24.75 8.58941 24.75 15.125C24.75 18.0562 23.777 20.772 22.1477 22.8759L26.9899 28.2023C27.3614 28.611 27.3313 29.2434 26.9227 29.6149C26.514 29.9864 25.8816 29.9563 25.5101 29.5477L20.7868 24.352Z" fill="black"/>
</svg>
